<?xml version="1.0" standalone="no"?>
<!DOCTYPE svg PUBLIC "-//W3C//DTD SVG 20010904//EN"
 "http://www.w3.org/TR/2001/REC-SVG-20010904/DTD/svg10.dtd">
<svg version="1.0" xmlns="http://www.w3.org/2000/svg"
 width="348.000000pt" height="256.000000pt" viewBox="0 0 348.000000 256.000000"
 preserveAspectRatio="xMidYMid meet">
<metadata>
Created by potrace 1.16, written by Peter Selinger 2001-2019
</metadata>
<g transform="translate(0.000000,256.000000) scale(0.100000,-0.100000)"
fill="#000000" stroke="none">
<path d="M1849 2243 c-11 -12 -15 -71 -19 -242 l-5 -226 -214 -3 c-182 -2
-218 -5 -233 -19 -16 -14 -18 -33 -18 -142 0 -69 5 -133 10 -141 8 -12 49 -16
232 -20 l223 -5 3 -317 2 -317 -50 31 c-27 17 -50 31 -50 32 0 1 7 19 15 41
30 85 13 160 -54 226 -70 70 -155 87 -241 48 -56 -25 -86 -53 -113 -104 -25
-49 -27 -137 -4 -180 l15 -31 -46 -24 c-26 -14 -68 -44 -94 -68 l-46 -43 -32
16 c-23 12 -30 21 -25 33 30 74 27 122 -11 189 -28 49 -107 93 -166 93 -116 0
-205 -96 -195 -209 2 -31 7 -63 11 -73 6 -12 -3 -23 -38 -43 -66 -39 -141
-125 -166 -192 -11 -31 -24 -88 -28 -127 l-7 -71 -85 -5 c-67 -4 -85 -8 -85
-20 0 -12 18 -15 105 -15 l105 0 7 82 c11 118 40 186 107 254 34 34 74 63 104
74 26 10 47 22 47 28 0 6 -10 30 -21 55 -40 81 -12 158 74 200 37 19 55 22 87
17 105 -18 161 -133 110 -228 -11 -20 -20 -39 -20 -42 0 -2 19 -14 43 -26 23
-12 43 -23 45 -24 2 -2 -8 -36 -23 -76 -26 -72 -53 -274 -41 -305 5 -12 32
-14 143 -12 l138 3 -2 65 c-5 125 -34 208 -104 292 l-39 46 41 36 c22 20 65
49 97 64 31 15 60 31 63 36 4 4 -4 27 -17 50 -50 86 -17 198 71 243 38 20 122
20 160 0 34 -17 67 -50 85 -86 20 -38 15 -115 -9 -156 -11 -20 -21 -40 -21
-45 0 -5 23 -22 52 -36 29 -15 65 -36 80 -47 l28 -21 0 -210 c0 -116 4 -217 9
-224 5 -9 30 -12 87 -10 l79 3 0 110 c-1 131 -16 186 -81 282 l-44 66 0 336
c0 275 -3 341 -14 357 -13 18 -31 19 -238 24 l-223 5 0 115 0 115 223 5 c207
5 225 6 238 24 11 16 14 66 14 243 l0 223 120 0 120 0 0 -223 c0 -177 3 -227
14 -243 13 -18 31 -19 238 -24 l223 -5 3 -117 3 -118 -220 0 c-214 0 -221 -1
-241 -22 -19 -21 -20 -34 -20 -239 l0 -217 -35 -58 c-39 -64 -70 -156 -61
-180 4 -12 21 -14 73 -12 l68 3 5 119 5 119 46 31 c26 17 61 39 79 49 l32 17
-22 35 c-42 68 -23 159 42 208 37 28 114 33 158 10 76 -40 105 -145 60 -219
l-21 -33 23 -14 c13 -8 44 -26 69 -40 97 -55 153 -152 172 -296 6 -50 8 -93 5
-96 -3 -3 -17 0 -32 6 -21 10 -25 17 -19 33 5 12 8 46 8 77 0 97 -66 159 -168
159 -95 0 -167 -70 -167 -162 0 -27 4 -57 10 -67 7 -15 0 -25 -47 -57 -96 -66
-146 -159 -147 -274 l-1 -55 300 0 300 0 5 115 5 115 23 -47 c19 -38 41 -132
42 -180 0 -5 48 -8 106 -8 95 0 105 2 102 18 -3 14 -16 17 -85 20 l-81 3 -7
47 c-8 55 -43 138 -79 185 -22 29 -26 44 -26 108 0 91 -22 187 -57 252 -29 52
-106 128 -157 154 -17 9 -32 17 -34 18 -1 1 5 18 13 38 37 89 -5 191 -98 238
-61 32 -153 24 -204 -17 -71 -57 -98 -142 -70 -224 12 -35 12 -35 -31 -62 -23
-16 -45 -28 -48 -28 -2 0 -3 87 -2 193 l3 192 220 3 c193 2 222 4 233 19 15
20 17 260 2 283 -8 12 -49 16 -232 20 l-223 5 -5 226 c-4 171 -8 230 -19 242
-20 25 -282 25 -302 0z m829 -1373 c32 -20 62 -71 62 -108 0 -10 -9 -36 -20
-57 -19 -37 -19 -41 -4 -50 9 -5 36 -22 60 -37 l45 -28 -3 -117 -3 -118 -260
0 -260 0 3 40 c4 48 39 129 75 171 14 17 53 45 86 63 l61 32 -20 39 c-24 47
-25 81 -5 121 34 64 120 87 183 49z m-757 -244 c32 -68 52 -169 47 -233 -3
-37 -4 -38 -45 -41 l-43 -3 0 170 c0 94 2 171 6 171 3 0 19 -29 35 -64z m-709
12 c54 -71 88 -166 88 -245 l0 -43 -95 0 -95 0 0 63 c0 104 41 257 69 257 5 0
20 -15 33 -32z"/>
</g>
</svg>
